<svg id="Capa_1" data-name="Capa 1" xmlns="http://www.w3.org/2000/svg" xmlns:xlink="http://www.w3.org/1999/xlink" viewBox="0 0 1417.32 1417.32"><defs><style>.cls-1{fill:#fff;}.cls-2{fill:#10a2d5;}.cls-3{fill:#0f2240;}.cls-4{fill:#1068bf;}.cls-5{fill:url(#Degradado_sin_nombre_16);}.cls-6{fill:url(#Degradado_sin_nombre_10);}.cls-7{fill:url(#Degradado_sin_nombre_7);}.cls-8{fill:#001a5a;}</style><linearGradient id="Degradado_sin_nombre_16" x1="844.05" y1="489.44" x2="844.05" y2="736.91" gradientUnits="userSpaceOnUse"><stop offset="0" stop-color="#121c4d"/><stop offset="1" stop-color="#224da9"/></linearGradient><linearGradient id="Degradado_sin_nombre_10" x1="766.26" y1="489.44" x2="766.26" y2="736.91" gradientUnits="userSpaceOnUse"><stop offset="0" stop-color="#14439b"/><stop offset="1" stop-color="#1c7cd0"/></linearGradient><linearGradient id="Degradado_sin_nombre_7" x1="666.53" y1="489.44" x2="666.53" y2="736.91" gradientUnits="userSpaceOnUse"><stop offset="0" stop-color="#1769b5"/><stop offset="1" stop-color="#189fd9"/></linearGradient></defs><title>1LOGO MERCAPP</title><rect class="cls-1" width="1417.32" height="1417.32"/><polygon class="cls-2" points="508.39 736.91 523.6 681.44 544.79 736.91 508.39 736.91"/><polygon class="cls-3" points="553.2 728.24 565.2 681.44 533.6 681.44 553.2 728.24"/><polygon class="cls-2" points="571.6 698.64 559.2 745.04 590 745.04 571.6 698.64"/><polygon class="cls-4" points="574.6 679.84 596.79 734.64 611.6 679.84 574.6 679.84"/><polygon class="cls-4" points="526.6 665.44 539.6 620.24 556.39 665.44 526.6 665.44"/><polygon class="cls-3" points="549.39 618.64 567.2 659.84 578.79 618.64 549.39 618.64"/><polygon class="cls-2" points="578.79 671.04 591.33 627.44 608.26 671.04 578.79 671.04"/><polygon class="cls-3" points="613.86 659.17 624.13 624.91 600.26 624.91 613.86 659.17"/><polygon class="cls-4" points="600.93 566.64 587.73 614.24 618.53 614.24 600.93 566.64"/><polygon class="cls-3" points="562 563.17 590.39 563.17 578.79 603.84 562 563.17"/><polygon class="cls-2" points="543.2 546.51 526.6 603.84 563.46 603.84 543.2 546.51"/><polygon class="cls-4" points="574.39 496.77 558.93 553.31 594.39 553.31 574.39 496.77"/><polygon class="cls-5" points="823.06 489.44 779.18 642.04 786.79 615.84 830.53 736.91 908.93 736.91 823.06 489.44"/><polygon class="cls-6" points="744.66 489.44 709.46 615.31 751.6 736.91 779.18 642.04 823.06 489.44 744.66 489.44"/><polygon class="cls-7" points="663.06 489.44 581.46 489.44 673.2 736.91 751.6 736.91 709.46 615.31 663.06 489.44"/><path class="cls-8" d="M425.84,888.84a7.72,7.72,0,0,1-7.74,7.83,8.23,8.23,0,0,1-3.13-.6,8.11,8.11,0,0,1-2.58-1.66,8.65,8.65,0,0,1-1.79-2.49,7,7,0,0,1-.69-3.08V841.6a16.81,16.81,0,0,0-1.57-6.31,15.74,15.74,0,0,0-3.68-5,17.8,17.8,0,0,0-5.29-3.27,17.47,17.47,0,0,0-12.9.09A18.84,18.84,0,0,0,381,830.6a16.24,16.24,0,0,0-3.73,5.11,14.56,14.56,0,0,0-1.38,6.26v46.87a7.72,7.72,0,0,1-7.73,7.83,8.19,8.19,0,0,1-3.13-.6,8,8,0,0,1-4.33-4.15,7.4,7.4,0,0,1-.65-3.08V842a30.14,30.14,0,0,1,2.63-12.48,32.37,32.37,0,0,1,7.13-10.17,34.63,34.63,0,0,1,10.41-6.86,31.34,31.34,0,0,1,12.52-2.53,31.67,31.67,0,0,1,14,3.13,34.42,34.42,0,0,1,11.1,8.38,35.28,35.28,0,0,1,11.23-8.38,32.88,32.88,0,0,1,26.43-.69,33,33,0,0,1,17.31,16.57,31.36,31.36,0,0,1,2.95,12.11,3.91,3.91,0,0,1,.09.92v46.87a7.5,7.5,0,0,1-2.3,5.57,7.65,7.65,0,0,1-5.53,2.26,8.23,8.23,0,0,1-3.13-.6,8.11,8.11,0,0,1-2.58-1.66,8,8,0,0,1-1.75-2.49,7.39,7.39,0,0,1-.64-3.08V841.69a17.16,17.16,0,0,0-1.57-6.35,15.19,15.19,0,0,0-3.73-5,18.12,18.12,0,0,0-5.38-3.27,17.39,17.39,0,0,0-6.36-1.19,16.84,16.84,0,0,0-6.49,1.28A18.12,18.12,0,0,0,431,830.6a16.58,16.58,0,0,0-3.68,5.11,15.58,15.58,0,0,0-1.47,6.26v46.87Z"/><path class="cls-8" d="M511.1,861a24.5,24.5,0,0,0,3.37,8.43,26.62,26.62,0,0,0,13.72,10.91,27.31,27.31,0,0,0,9.25,1.56A29.11,29.11,0,0,0,548.17,880a21.1,21.1,0,0,0,8.15-5.53,10.17,10.17,0,0,1,4.19-1.88,7.61,7.61,0,0,1,3.82.32,6.6,6.6,0,0,1,2.12,1.33,12.21,12.21,0,0,1,1.65,2,8.79,8.79,0,0,1,1.34,5.25,7.38,7.38,0,0,1-3,5.34,39.48,39.48,0,0,1-5.07,4.24,32.11,32.11,0,0,1-6.44,3.5A44.62,44.62,0,0,1,547,896.9a48.77,48.77,0,0,1-9.58.87,42.84,42.84,0,0,1-17.13-3.45,45,45,0,0,1-14-9.39,43.69,43.69,0,0,1-9.44-14,44.23,44.23,0,0,1,0-34.25,43.76,43.76,0,0,1,9.44-14,44.81,44.81,0,0,1,14-9.39,44.2,44.2,0,0,1,34.12,0,44.41,44.41,0,0,1,23.48,23.16,42.59,42.59,0,0,1,3.64,17,7.28,7.28,0,0,1-2.17,5.43,7.71,7.71,0,0,1-5.66,2.12Zm54.06-13.26a25.19,25.19,0,0,0-3.27-8.88,26.15,26.15,0,0,0-6.08-6.91,27.9,27.9,0,0,0-8.24-4.51,29.49,29.49,0,0,0-9.85-1.61,28.21,28.21,0,0,0-18,6.21,25.27,25.27,0,0,0-5.94,6.91,26.27,26.27,0,0,0-3.18,8.79Z"/><path class="cls-8" d="M644.8,827h-.09a28.62,28.62,0,0,0-11.51,2.35,30.15,30.15,0,0,0-9.48,6.4,30.85,30.85,0,0,0-6.45,9.53A28.93,28.93,0,0,0,614.88,857v31.77a7.77,7.77,0,0,1-2.21,5.66,7.33,7.33,0,0,1-5.43,2.26,8.19,8.19,0,0,1-5.81-2.26,7.46,7.46,0,0,1-2.39-5.66V857a44.64,44.64,0,0,1,3.59-17.82,46.78,46.78,0,0,1,9.81-14.59,46.22,46.22,0,0,1,14.55-9.9A43.7,43.7,0,0,1,644.71,811h.46a8.09,8.09,0,0,1,6.13,2.26,7.85,7.85,0,0,1,2.16,5.66,7.63,7.63,0,0,1-2.39,5.71,8.22,8.22,0,0,1-5.9,2.3Z"/><path class="cls-8" d="M677.59,853.57l-.19.19a.26.26,0,0,0,.09.18c0,.06,0,.09.1.09a26.06,26.06,0,0,0,2.07,10.18,29.87,29.87,0,0,0,5.71,8.84,28.69,28.69,0,0,0,8.51,6.3,24.61,24.61,0,0,0,10.59,2.49,27,27,0,0,0,19-6.91c.8-.61,1.66-1.22,2.58-1.84a9.14,9.14,0,0,1,3-1.29,7.35,7.35,0,0,1,3.36.05,9.14,9.14,0,0,1,3.69,2.07,7.26,7.26,0,0,1,2.53,5.76,8.93,8.93,0,0,1-2.9,6.3,36.65,36.65,0,0,1-13.4,8.75,45.17,45.17,0,0,1-16.43,3,43.83,43.83,0,0,1-17.13-3.36,44.65,44.65,0,0,1-14-9.25,43.18,43.18,0,0,1-9.49-13.82,42.15,42.15,0,0,1-3.45-17l.18-.37-.18-.18a42.84,42.84,0,0,1,3.45-17.13,43.41,43.41,0,0,1,9.49-14,44.76,44.76,0,0,1,14-9.35,43.32,43.32,0,0,1,17.13-3.4,46.94,46.94,0,0,1,16.48,2.9,35.36,35.36,0,0,1,13.35,8.61,9.21,9.21,0,0,1,2.95,6.35,7.07,7.07,0,0,1-2.58,5.8,8.91,8.91,0,0,1-3.69,2.07,7.35,7.35,0,0,1-3.36.05,9.14,9.14,0,0,1-3-1.29,28.87,28.87,0,0,1-2.58-1.93,27.05,27.05,0,0,0-9-5.25,27.8,27.8,0,0,0-9.95-1.38A24.74,24.74,0,0,0,694,828.3a28.34,28.34,0,0,0-8.52,6.21,30,30,0,0,0-5.76,8.84A25.88,25.88,0,0,0,677.59,853.57Z"/><path class="cls-8" d="M753.83,853.85a42.84,42.84,0,0,1,3.45-17.13,43.92,43.92,0,0,1,9.44-14,44.81,44.81,0,0,1,14-9.39,43.85,43.85,0,0,1,34,0,44.32,44.32,0,0,1,13.86,9.3A44.94,44.94,0,0,1,838,836.44a42.59,42.59,0,0,1,3.59,16.95v35.08a8,8,0,0,1-2.35,5.8,7.83,7.83,0,0,1-5.85,2.4,7.16,7.16,0,0,1-5.57-2.4,8.34,8.34,0,0,1-2.16-5.8l-.09-1.93a48.56,48.56,0,0,1-12.76,8.15,37.18,37.18,0,0,1-15,3.08,42.62,42.62,0,0,1-17-3.45,44.37,44.37,0,0,1-23.43-23.39A42.49,42.49,0,0,1,753.83,853.85Zm15.83,0a27,27,0,0,0,2.21,10.82,29.07,29.07,0,0,0,6,8.93,28.5,28.5,0,0,0,8.93,6.08,27.11,27.11,0,0,0,11,2.25,26.7,26.7,0,0,0,11-2.25,28.91,28.91,0,0,0,8.84-6.08,28.58,28.58,0,0,0,5.94-8.93,28.41,28.41,0,0,0,0-21.73,28,28,0,0,0-5.94-8.89,28.46,28.46,0,0,0-8.84-6,28.16,28.16,0,0,0-21.87,0,28.63,28.63,0,0,0-8.93,6,28.05,28.05,0,0,0-6,8.89A27.21,27.21,0,0,0,769.66,853.85Z"/><path class="cls-8" d="M864.14,853.85a42.84,42.84,0,0,1,3.45-17.13,43.92,43.92,0,0,1,9.44-14,44.85,44.85,0,0,1,14-9.39,43.88,43.88,0,0,1,34.11,0,44,44,0,0,1,23.3,23.34,44.13,44.13,0,0,1,0,34.21,45,45,0,0,1-9.39,14,44.08,44.08,0,0,1-13.91,9.44,43.9,43.9,0,0,1-32.27.73,45.78,45.78,0,0,1-12.89-7.5v32a8.6,8.6,0,0,1-2.12,5.9,7.16,7.16,0,0,1-5.62,2.39,7.89,7.89,0,0,1-3.13-.64,8.53,8.53,0,0,1-2.58-1.75,8.29,8.29,0,0,1-2.39-5.9Zm15.84,0a26.85,26.85,0,0,0,2.21,10.82,28.87,28.87,0,0,0,6,8.93,28.5,28.5,0,0,0,8.93,6.08,27.11,27.11,0,0,0,11,2.25,26.7,26.7,0,0,0,11-2.25,28.91,28.91,0,0,0,8.84-6.08,28.58,28.58,0,0,0,5.94-8.93,28.41,28.41,0,0,0,0-21.73,28,28,0,0,0-5.94-8.89,28.46,28.46,0,0,0-8.84-6,28.16,28.16,0,0,0-21.87,0,28.63,28.63,0,0,0-8.93,6,27.86,27.86,0,0,0-6,8.89A27,27,0,0,0,880,853.85Z"/><path class="cls-8" d="M969.48,853.85a42.84,42.84,0,0,1,3.45-17.13,43.92,43.92,0,0,1,9.44-14,44.74,44.74,0,0,1,14-9.39,43.88,43.88,0,0,1,34.11,0,44,44,0,0,1,23.3,23.34,44.13,44.13,0,0,1,0,34.21,45.15,45.15,0,0,1-9.39,14,44.08,44.08,0,0,1-13.91,9.44,43.9,43.9,0,0,1-32.27.73,45.78,45.78,0,0,1-12.89-7.5v32a8.6,8.6,0,0,1-2.12,5.9,7.17,7.17,0,0,1-5.62,2.39,7.89,7.89,0,0,1-3.13-.64,8.53,8.53,0,0,1-2.58-1.75,8.29,8.29,0,0,1-2.39-5.9Zm15.84,0a26.85,26.85,0,0,0,2.21,10.82,28.87,28.87,0,0,0,6,8.93,28.5,28.5,0,0,0,8.93,6.08,27.11,27.11,0,0,0,11,2.25,26.7,26.7,0,0,0,11-2.25,28.91,28.91,0,0,0,8.84-6.08,28.58,28.58,0,0,0,5.94-8.93,28.41,28.41,0,0,0,0-21.73,28,28,0,0,0-5.94-8.89,28.46,28.46,0,0,0-8.84-6,28.16,28.16,0,0,0-21.87,0,28.63,28.63,0,0,0-8.93,6,27.86,27.86,0,0,0-6,8.89A27,27,0,0,0,985.32,853.85Z"/></svg>