<?xml version="1.0" standalone="no"?>
<!DOCTYPE svg PUBLIC "-//W3C//DTD SVG 20010904//EN"
 "http://www.w3.org/TR/2001/REC-SVG-20010904/DTD/svg10.dtd">
<svg version="1.0" xmlns="http://www.w3.org/2000/svg"
 width="218.000000pt" height="218.000000pt" viewBox="0 0 218.000000 218.000000"
 preserveAspectRatio="xMidYMid meet">
<metadata>
Created by potrace 1.14, written by Peter Selinger 2001-2017
</metadata>
<g transform="translate(0.000000,218.000000) scale(0.100000,-0.100000)"
fill="#000000" stroke="none">
<path d="M490 1683 c0 -5 102 -281 227 -615 l228 -608 193 0 c190 0 193 0 202
23 5 12 44 141 86 287 42 146 79 268 83 272 3 4 55 -128 115 -292 l109 -300
193 0 c107 0 194 3 193 8 0 4 -96 282 -212 617 l-212 610 -197 3 -197 2 -10
-37 c-89 -327 -166 -592 -171 -586 -4 5 -48 123 -99 263 -52 140 -102 279
-113 308 l-19 52 -200 0 c-109 0 -199 -3 -199 -7z"/>
<path d="M409 1507 l-35 -132 79 -3 c44 -2 82 -1 84 2 5 4 -70 225 -85 252 -4
7 -22 -42 -43 -119z"/>
<path d="M265 1295 c-14 -49 -30 -103 -36 -119 -17 -55 -15 -56 71 -56 44 0
80 4 80 9 0 5 -20 64 -44 132 l-44 124 -27 -90z"/>
<path d="M390 1315 c0 -19 75 -184 81 -178 4 5 18 47 32 96 l25 87 -69 0 c-38
0 -69 -2 -69 -5z"/>
<path d="M551 1193 c-13 -49 -26 -96 -28 -105 -5 -16 3 -18 66 -18 39 0 71 2
71 4 0 14 -74 206 -79 206 -3 0 -17 -39 -30 -87z"/>
<path d="M330 1033 c0 -15 74 -183 81 -183 4 0 9 12 12 28 4 15 15 57 26 95
l20 67 -70 0 c-38 0 -69 -3 -69 -7z"/>
<path d="M250 948 c-12 -40 -25 -86 -31 -102 -5 -16 -9 -31 -9 -32 0 -2 32 -4
70 -4 39 0 70 3 70 8 0 8 -70 195 -75 200 -2 2 -13 -29 -25 -70z"/>
<path d="M580 1006 c0 -5 60 -149 64 -153 4 -4 46 129 46 146 0 7 -22 11 -55
11 -30 0 -55 -2 -55 -4z"/>
<path d="M507 889 c-15 -51 -25 -94 -23 -96 2 -2 30 -3 63 -1 l59 3 -36 94
-37 93 -26 -93z"/>
<path d="M250 723 c0 -15 83 -213 90 -213 3 0 17 44 30 98 14 53 26 103 28
110 3 9 -17 12 -72 12 -42 0 -76 -3 -76 -7z"/>
<path d="M460 723 c0 -21 95 -242 101 -236 3 5 19 55 34 112 14 57 29 109 32
117 4 11 -12 14 -81 14 -47 0 -86 -3 -86 -7z"/>
<path d="M162 598 c-18 -63 -32 -120 -32 -127 0 -7 27 -11 80 -11 l79 0 -28
78 c-16 42 -38 99 -48 126 l-20 49 -31 -115z"/>
<path d="M411 538 c-12 -46 -24 -91 -27 -100 -5 -16 3 -18 60 -18 36 0 66 4
66 8 0 8 -69 184 -74 190 -2 1 -13 -35 -25 -80z"/>
</g>
</svg>
