<?xml version="1.0" standalone="no"?>
<!DOCTYPE svg PUBLIC "-//W3C//DTD SVG 20010904//EN"
 "http://www.w3.org/TR/2001/REC-SVG-20010904/DTD/svg10.dtd">
<svg version="1.0" xmlns="http://www.w3.org/2000/svg"
 width="1159.000000pt" height="1159.000000pt" viewBox="0 0 1159.000000 1159.000000"
 preserveAspectRatio="xMidYMid meet">
<metadata>
Created by potrace 1.14, written by Peter Selinger 2001-2017
</metadata>
<g transform="translate(0.000000,1159.000000) scale(0.100000,-0.100000)"
fill="#000000" stroke="none">
<path d="M4430 10109 c-41 -4 -266 -8 -500 -8 -386 0 -434 -2 -515 -19 -283
-62 -518 -231 -693 -497 -224 -342 -612 -917 -843 -1250 -337 -487 -377 -559
-435 -775 -64 -239 -57 -443 23 -704 19 -62 98 -191 204 -336 236 -323 503
-708 680 -981 30 -47 66 -112 79 -145 169 -425 485 -728 900 -864 136 -44 147
-47 230 -60 41 -7 84 -16 96 -22 30 -14 902 10 896 24 -4 12 -59 98 -675 1053
-110 171 -284 441 -387 600 -103 160 -276 427 -385 595 -406 625 -377 578
-365 601 6 11 79 122 162 247 83 125 260 391 393 592 364 549 825 1245 1073
1619 122 183 222 335 222 337 0 6 -72 2 -160 -7z"/>
<path d="M7585 10059 c-49 -4 -152 -7 -227 -8 -76 -1 -138 -5 -138 -10 0 -5 3
-11 8 -13 4 -1 60 -84 123 -183 64 -99 217 -335 339 -525 122 -190 327 -507
455 -705 127 -198 311 -481 407 -630 381 -588 422 -651 444 -687 l24 -37 -172
-258 c-94 -142 -266 -402 -383 -578 -266 -401 -938 -1415 -1141 -1720 -84
-127 -156 -239 -160 -249 -6 -17 -2 -18 47 -11 30 4 281 10 559 14 304 5 523
12 550 19 296 72 531 237 697 491 89 135 376 565 539 806 261 385 287 424 381
558 218 311 252 367 316 522 28 68 71 225 82 298 12 89 7 299 -10 382 -19 93
-58 211 -90 275 -13 25 -85 131 -161 235 -274 379 -576 816 -661 957 -22 34
-57 104 -78 153 -157 358 -373 591 -700 753 -102 51 -265 105 -380 127 -49 9
-104 21 -121 26 -35 10 -415 9 -549 -2z"/>
<path d="M6505 9758 c-54 -106 -162 -319 -240 -473 -200 -394 -465 -916 -725
-1430 -122 -242 -293 -579 -380 -750 -87 -170 -285 -562 -440 -870 -156 -308
-288 -563 -293 -566 -13 -9 -16 -4 115 -205 64 -98 202 -312 306 -474 104
-162 194 -296 200 -298 6 -2 106 189 223 425 116 235 347 700 512 1033 164
333 361 731 437 885 76 154 274 555 440 890 166 336 360 729 432 874 72 145
126 266 121 270 -5 3 -55 74 -110 156 -55 83 -169 251 -253 375 -83 124 -171
253 -194 287 -22 35 -44 63 -47 63 -4 0 -51 -87 -104 -192z"/>
<path d="M1301 4207 l-43 -12 -169 -439 c-127 -331 -166 -443 -157 -453 6 -8
33 -13 72 -13 l61 0 41 113 41 112 151 3 150 3 20 -53 c11 -29 30 -81 42 -115
l23 -63 79 0 c62 0 80 3 85 15 3 9 -12 57 -34 108 -22 51 -98 253 -169 450
-71 196 -133 357 -139 356 -5 0 -30 -6 -54 -12z m54 -417 c25 -67 44 -125 42
-127 -3 -2 -47 -2 -100 -1 l-95 3 42 110 c24 61 46 119 50 129 3 10 9 17 11
14 3 -3 25 -60 50 -128z"/>
<path d="M1893 4185 c-94 -48 -142 -128 -143 -236 0 -55 5 -72 29 -110 31 -50
93 -99 189 -149 35 -18 83 -51 107 -72 42 -37 45 -43 45 -90 0 -44 -4 -54 -34
-84 -29 -29 -41 -34 -82 -34 -57 0 -133 32 -186 78 -47 42 -64 29 -70 -51 -4
-55 -3 -59 26 -84 62 -53 134 -77 221 -77 93 0 134 15 195 71 72 64 103 167
80 263 -18 74 -84 142 -205 210 -120 68 -155 104 -155 164 0 37 5 48 32 71 30
25 38 27 98 23 39 -3 82 -14 107 -27 23 -11 49 -21 56 -21 15 0 58 99 50 114
-3 4 -31 20 -62 34 -44 20 -76 26 -151 29 -87 4 -99 2 -147 -22z"/>
<path d="M659 4193 c0 -5 -1 -213 -2 -463 -2 -438 -3 -456 -22 -490 -30 -50
-78 -76 -120 -63 -18 6 -38 7 -44 4 -6 -4 -14 -37 -18 -73 l-6 -66 49 -8 c100
-15 201 25 255 99 61 84 63 98 67 590 2 336 0 452 -9 463 -12 15 -148 21 -150
7z"/>
<path d="M2453 4189 c-7 -10 -8 -30 -3 -64 5 -27 9 -224 9 -436 1 -343 3 -388
17 -393 29 -11 131 -6 142 7 6 8 6 35 0 79 -5 37 -8 105 -6 150 l3 83 41 3 40
3 118 -166 118 -166 82 3 c66 2 81 6 84 20 2 9 -51 90 -122 184 l-126 167 28
17 c73 45 132 151 132 240 0 110 -75 218 -175 255 -67 24 -365 35 -382 14z
m340 -162 c68 -52 72 -144 10 -218 -34 -40 -79 -59 -143 -59 l-50 0 0 156 0
156 73 -4 c62 -3 80 -8 110 -31z"/>
<path d="M5902 4160 c-18 -4 -35 -10 -38 -12 -7 -7 -334 -858 -334 -869 0 -5
29 -9 64 -9 l65 0 19 53 c11 28 30 80 42 115 l23 62 155 -2 155 -3 40 -112 40
-113 78 0 c44 0 79 4 79 9 0 5 -17 48 -39 97 -21 49 -96 248 -166 442 -71 193
-133 352 -139 351 -6 -1 -26 -5 -44 -9z m67 -427 l40 -113 -109 0 c-61 0 -110
2 -110 4 0 4 75 199 102 266 l10 25 13 -35 c7 -19 31 -86 54 -147z"/>
<path d="M8195 4157 c-70 -24 -120 -54 -167 -102 -234 -237 -156 -698 133
-786 269 -82 519 134 519 446 0 273 -135 441 -364 451 -51 3 -96 -1 -121 -9z
m182 -122 c54 -27 87 -66 125 -150 20 -44 23 -66 23 -175 0 -119 -1 -128 -31
-190 -36 -75 -73 -115 -129 -141 -114 -53 -239 15 -297 160 -32 81 -32 261 0
342 60 152 186 215 309 154z"/>
<path d="M10315 4157 c-69 -23 -118 -54 -167 -102 -116 -117 -162 -295 -123
-480 20 -95 58 -166 121 -225 78 -74 129 -93 244 -94 87 -1 101 2 163 31 152
72 247 237 247 428 0 273 -135 441 -364 451 -51 3 -96 -1 -121 -9z m182 -122
c54 -27 87 -66 125 -150 20 -44 23 -66 23 -175 0 -119 -1 -128 -31 -190 -36
-75 -73 -115 -129 -141 -114 -53 -239 15 -297 160 -32 81 -32 261 0 342 60
152 186 215 309 154z"/>
<path d="M5136 4140 c-99 -39 -160 -129 -160 -235 0 -101 52 -163 205 -246
119 -63 160 -103 166 -159 5 -54 -20 -101 -68 -126 -63 -32 -173 -1 -247 69
-39 37 -47 31 -56 -45 l-6 -56 47 -31 c88 -58 192 -75 287 -47 114 35 177 119
178 238 1 116 -45 177 -198 263 -48 27 -105 66 -126 87 -33 33 -38 44 -38 84
0 37 5 51 28 74 39 38 86 46 158 25 32 -9 67 -23 78 -31 33 -23 43 -17 60 33
9 26 16 50 16 53 0 4 -28 20 -62 35 -84 38 -191 44 -262 15z"/>
<path d="M3495 4123 c4 -15 10 -214 12 -441 l5 -414 186 4 c210 5 244 13 327
76 63 48 108 107 134 177 88 235 8 501 -178 592 -55 28 -59 28 -275 31 l-219
3 8 -28z m369 -95 c58 -18 128 -90 156 -164 18 -45 24 -80 24 -149 1 -145 -46
-246 -141 -301 -43 -26 -56 -28 -152 -29 l-106 0 -3 315 c-1 173 0 320 3 327
6 17 163 17 219 1z"/>
<path d="M4375 4141 c-3 -6 -1 -38 5 -73 5 -35 10 -228 10 -431 l0 -367 216 2
217 3 13 45 c22 74 31 70 -151 70 l-165 0 0 135 0 135 125 0 124 0 10 38 c22
84 32 77 -121 80 l-138 3 0 124 0 124 158 3 157 3 0 55 0 55 -227 3 c-139 1
-229 -1 -233 -7z"/>
<path d="M6415 4118 c4 -18 9 -217 12 -441 l4 -408 72 3 c65 3 72 5 69 23 -1
11 -5 82 -9 158 l-6 137 54 0 54 -1 110 -157 110 -157 83 -3 c62 -2 82 0 82
10 0 7 -56 87 -125 178 -69 91 -125 167 -125 170 1 3 19 17 41 33 113 78 146
240 73 364 -55 95 -136 123 -352 123 l-154 0 7 -32z m320 -107 c91 -53 100
-177 19 -253 -39 -36 -74 -48 -140 -48 l-54 0 0 158 c0 87 3 162 8 166 12 13
135 -4 167 -23z"/>
<path d="M7195 4118 c4 -18 9 -217 12 -441 l4 -408 72 3 c65 3 72 5 69 23 -1
11 -5 82 -9 158 l-6 137 54 0 54 -1 113 -159 113 -160 79 0 c57 0 80 4 80 13
0 6 -56 86 -125 177 -69 91 -125 167 -125 170 1 3 19 17 41 33 112 77 146 240
75 361 -57 98 -136 126 -354 126 l-154 0 7 -32z m323 -108 c88 -54 96 -177 16
-252 -39 -36 -74 -48 -140 -48 l-54 0 0 160 0 160 73 0 c54 0 80 -5 105 -20z"/>
<path d="M8855 4140 c-3 -5 -1 -37 5 -72 5 -35 10 -228 10 -430 l0 -368 223 0
224 0 11 51 c7 28 12 55 12 60 0 5 -73 9 -170 9 l-170 0 0 380 0 380 -69 0
c-39 0 -72 -4 -76 -10z"/>
<path d="M9475 4140 c-3 -5 -1 -37 5 -72 5 -35 10 -228 10 -430 l0 -368 223 0
224 0 11 51 c7 28 12 55 12 60 0 5 -73 9 -170 9 l-170 0 0 380 0 380 -69 0
c-39 0 -72 -4 -76 -10z"/>
<path d="M6771 2703 c-20 -4 -22 -8 -16 -31 5 -15 11 -277 14 -582 l6 -555
185 -3 c106 -1 207 2 237 8 120 25 221 101 267 199 17 38 21 65 21 156 0 103
-2 113 -30 164 -20 37 -47 66 -86 94 l-57 40 44 59 c137 187 66 384 -161 444
-48 13 -365 18 -424 7z m394 -172 c56 -25 78 -59 83 -130 3 -46 -1 -65 -25
-111 -18 -36 -34 -55 -45 -54 -10 0 -63 1 -118 2 l-100 2 0 161 0 162 80 -6
c45 -4 100 -15 125 -26z m8 -462 c53 -14 104 -63 118 -112 15 -57 6 -149 -20
-190 -36 -58 -91 -81 -208 -85 l-103 -4 0 207 0 208 88 -7 c48 -4 104 -11 125
-17z"/>
<path d="M4105 2690 c-3 -5 17 -51 44 -102 32 -60 109 -256 216 -548 91 -250
170 -467 176 -482 9 -22 21 -29 65 -39 30 -7 57 -10 60 -6 6 6 96 235 193 494
l57 152 115 -314 114 -314 48 -11 c26 -5 56 -10 65 -10 13 0 67 129 242 582
124 320 225 586 225 592 0 7 -32 11 -89 11 l-89 0 -123 -325 c-68 -179 -140
-371 -160 -428 l-37 -102 -49 142 c-26 79 -95 271 -151 428 l-102 285 -94 3
c-52 1 -98 -1 -103 -6 -5 -5 15 -70 47 -153 30 -79 55 -150 55 -157 0 -7 -40
-118 -89 -247 -49 -128 -92 -247 -96 -264 -9 -42 -21 -39 -30 6 -3 20 -63 195
-132 387 -69 193 -132 370 -140 394 l-15 42 -108 0 c-60 0 -112 -4 -115 -10z"/>
<path d="M5874 2685 c-4 -8 -2 -23 2 -32 5 -10 11 -265 14 -568 l5 -550 291
-3 291 -2 16 60 c28 98 46 90 -198 90 l-215 0 0 185 0 185 164 0 164 0 16 65
c9 35 16 69 16 75 0 6 -62 10 -180 10 l-180 0 0 175 0 175 208 2 207 3 0 70 0
70 -308 3 c-267 2 -308 0 -313 -13z"/>
</g>
</svg>
